<svg xmlns="http://www.w3.org/2000/svg" viewBox="0 0 1024 500" width="1024" height="500">
  <defs>
    <!-- Beer amber gradient matching the logo -->
    <linearGradient id="beerGrad" x1="0%" y1="0%" x2="100%" y2="100%">
      <stop offset="0%" stop-color="#FFD100" />
      <stop offset="100%" stop-color="#FF9900" />
    </linearGradient>

    <!-- Subtle radial glow behind the mug -->
    <radialGradient id="glow" cx="50%" cy="50%" r="50%">
      <stop offset="0%" stop-color="#F5A623" stop-opacity="0.15" />
      <stop offset="100%" stop-color="#1A1208" stop-opacity="0" />
    </radialGradient>

    <!-- Bubble circles -->
    <radialGradient id="bubbleGrad" cx="40%" cy="35%" r="60%">
      <stop offset="0%" stop-color="#FFFFFF" stop-opacity="0.25" />
      <stop offset="100%" stop-color="#FFFFFF" stop-opacity="0.05" />
    </radialGradient>
  </defs>

  <!-- Background: dark beer colour -->
  <rect width="1024" height="500" fill="#1A1208" />

  <!-- Subtle surface accent strip at bottom -->
  <rect y="460" width="1024" height="40" fill="#2C1F0E" />

  <!-- Ambient glow behind the mug -->
  <ellipse cx="340" cy="260" rx="250" ry="230" fill="url(#glow)" />

  <!-- === BEER MUG (scaled-up logo, centred left) === -->
  <g transform="translate(220, 80) scale(1.8)">
    <!-- Handle -->
    <path fill="none" stroke="#EDF2F4" stroke-width="12" stroke-linejoin="miter"
          d="M 130,100 L 155,100 L 155,145 L 122,145"/>

    <!-- Beer liquid base -->
    <polygon fill="url(#beerGrad)" points="65,95 135,95 120,165 80,165"/>

    <!-- Angular foam -->
    <polygon fill="#EDF2F4" points="55,95 72,60 92,82 108,50 125,75 145,95 135,105 65,105"/>

    <!-- Glass highlight -->
    <polygon fill="#FFFFFF" opacity="0.2" points="75,95 85,95 78,160 70,160" />
  </g>

  <!-- Decorative bubbles -->
  <circle cx="290" cy="340" r="6" fill="url(#bubbleGrad)" opacity="0.5" />
  <circle cx="320" cy="380" r="4" fill="url(#bubbleGrad)" opacity="0.4" />
  <circle cx="370" cy="360" r="5" fill="url(#bubbleGrad)" opacity="0.45" />
  <circle cx="400" cy="395" r="3.5" fill="url(#bubbleGrad)" opacity="0.35" />
  <circle cx="345" cy="410" r="3" fill="url(#bubbleGrad)" opacity="0.3" />

  <!-- === TEXT AREA (right side) === -->

  <!-- App name: "Beerer" -->
  <text x="560" y="210"
        font-family="-apple-system, BlinkMacSystemFont, 'Segoe UI', Roboto, 'Helvetica Neue', Arial, sans-serif"
        font-size="86" font-weight="800" fill="#F5A623" letter-spacing="-1">
    Beerer
  </text>

  <!-- Tagline -->
  <text x="562" y="265"
        font-family="-apple-system, BlinkMacSystemFont, 'Segoe UI', Roboto, 'Helvetica Neue', Arial, sans-serif"
        font-size="26" font-weight="400" fill="#F5ECD7" letter-spacing="0.5">
    Track keg beer at parties
  </text>

  <!-- Feature bullets with custom SVG icons -->
  <g transform="translate(562, 300)">

    <!-- POUR: small angular beer drop -->
    <g transform="translate(0, 0)">
      <polygon fill="#F5A623" points="8,0 14,12 8,18 2,12" />
      <line x1="8" y1="20" x2="8" y2="24" stroke="#F5A623" stroke-width="1.5" stroke-linecap="round" />
    </g>
    <text x="22" y="18"
          font-family="-apple-system, BlinkMacSystemFont, 'Segoe UI', Roboto, 'Helvetica Neue', Arial, sans-serif"
          font-size="19" fill="#A89880">
      Pour
    </text>

    <!-- Dot separator -->
    <circle cx="92" cy="14" r="2" fill="#A89880" opacity="0.5" />

    <!-- STATS: angular bar chart -->
    <g transform="translate(108, 0)">
      <rect x="0" y="10" width="5" height="14" fill="#F5A623" />
      <rect x="7" y="4"  width="5" height="20" fill="#F5A623" />
      <rect x="14" y="8" width="5" height="16" fill="#F5A623" />
    </g>
    <text x="134" y="18"
          font-family="-apple-system, BlinkMacSystemFont, 'Segoe UI', Roboto, 'Helvetica Neue', Arial, sans-serif"
          font-size="19" fill="#A89880">
      Stats
    </text>

    <!-- Dot separator -->
    <circle cx="204" cy="14" r="2" fill="#A89880" opacity="0.5" />

    <!-- SPLIT COSTS: angular coin/split symbol -->
    <g transform="translate(220, 2)">
      <!-- Two overlapping angular diamonds = "split" -->
      <polygon fill="#F5A623" points="8,0 14,10 8,20 2,10" opacity="0.9" />
      <polygon fill="#F5A623" points="14,0 20,10 14,20 8,10" opacity="0.55" />
    </g>
    <text x="246" y="18"
          font-family="-apple-system, BlinkMacSystemFont, 'Segoe UI', Roboto, 'Helvetica Neue', Arial, sans-serif"
          font-size="19" fill="#A89880">
      Split costs
    </text>

  </g>

  <!-- "Drink Responsibly" small text -->
  <text x="562" y="365"
        font-family="-apple-system, BlinkMacSystemFont, 'Segoe UI', Roboto, 'Helvetica Neue', Arial, sans-serif"
        font-size="13" fill="#A89880" opacity="0.6">
    Drink Responsibly
  </text>

  <!-- Subtle amber accent line under the tagline -->
  <rect x="562" y="278" width="60" height="3" rx="1.5" fill="#F5A623" opacity="0.6" />
</svg>
